<?xml version="1.0" standalone="no"?>
<!DOCTYPE svg PUBLIC "-//W3C//DTD SVG 20010904//EN"
 "http://www.w3.org/TR/2001/REC-SVG-20010904/DTD/svg10.dtd">
<svg version="1.0" xmlns="http://www.w3.org/2000/svg"
 width="700.000000pt" height="700.000000pt" viewBox="0 0 700.000000 700.000000"
 preserveAspectRatio="xMidYMid meet">
<metadata>
Created by potrace 1.14, written by Peter Selinger 2001-2017
</metadata>
<g transform="translate(0.000000,700.000000) scale(0.100000,-0.100000)"
fill="#000000" stroke="none">
<path d="M2450 6546 c-168 -57 -307 -144 -444 -280 -273 -269 -431 -616 -630
-1386 -169 -655 -193 -743 -273 -980 -24 -74 -63 -177 -85 -229 -26 -61 -38
-104 -36 -123 4 -22 1 -27 -11 -24 -9 3 -38 7 -66 11 -27 3 -61 7 -75 10 -14
3 -41 7 -60 10 -19 3 -42 8 -50 10 -8 2 -31 6 -50 9 -65 10 -271 53 -435 92
-11 3 -45 8 -75 11 -47 4 -60 1 -90 -19 -61 -42 -84 -120 -55 -194 24 -63 65
-85 185 -99 25 -3 52 -7 60 -10 8 -2 40 -7 70 -10 30 -3 62 -8 70 -10 8 -2 42
-7 75 -11 61 -7 67 -7 143 -18 23 -3 61 -8 85 -11 23 -3 74 -10 112 -15 39 -5
93 -12 120 -15 28 -3 69 -8 93 -10 50 -6 116 -13 175 -20 46 -5 106 -11 177
-19 25 -3 77 -8 115 -11 39 -3 86 -8 105 -10 41 -5 135 -13 240 -20 41 -3 93
-7 115 -10 22 -3 83 -7 135 -10 52 -3 113 -8 135 -10 93 -8 376 -24 730 -40
55 -2 217 -7 360 -10 143 -3 294 -8 335 -10 117 -7 240 -15 300 -20 402 -33
631 -25 795 30 22 8 105 16 185 20 80 3 170 7 200 9 30 3 107 7 170 11 63 3
133 8 155 10 22 2 78 7 125 10 108 7 204 14 255 20 22 2 72 7 110 10 39 3 84
8 100 10 17 2 89 11 160 20 72 9 141 18 155 21 14 2 45 7 70 10 25 3 63 9 85
14 22 5 56 11 75 15 19 3 46 8 60 10 14 3 36 7 49 10 164 31 228 59 268 119
24 35 28 51 28 111 -1 55 -6 79 -25 113 -27 47 -99 101 -139 104 -14 0 -33 2
-41 3 -8 0 -43 -7 -78 -16 -34 -10 -66 -18 -70 -19 -4 0 -25 -5 -47 -11 -22
-6 -47 -12 -55 -14 -8 -2 -35 -8 -60 -15 -25 -7 -56 -14 -70 -17 -13 -2 -56
-11 -95 -19 -90 -20 -158 -32 -385 -69 -14 -2 -50 -7 -80 -10 -30 -3 -62 -8
-70 -10 -8 -2 -42 -7 -75 -10 -33 -3 -70 -7 -82 -9 -12 -3 -48 -7 -80 -11 -32
-3 -69 -8 -83 -10 -14 -2 -56 -6 -95 -10 -38 -4 -83 -8 -100 -10 -128 -16
-147 -16 -140 2 52 132 62 324 30 590 -15 127 -92 527 -115 599 -6 17 -13 42
-15 55 -3 13 -16 62 -31 109 -118 388 -310 826 -456 1042 -62 92 -188 208
-250 231 -31 11 -19 24 37 40 71 20 158 15 220 -12 88 -39 245 -225 385 -455
64 -106 180 -329 260 -501 74 -160 272 -552 288 -571 60 -71 162 -63 196 15
29 63 26 159 -8 346 -18 95 -92 327 -158 495 -143 365 -384 694 -627 859 -141
96 -297 150 -422 146 -136 -4 -234 -42 -544 -210 -180 -97 -251 -118 -405
-118 -108 1 -136 5 -205 28 -96 32 -164 70 -225 125 -25 23 -61 53 -80 68 -19
15 -37 29 -40 32 -37 37 -209 121 -295 143 -99 26 -144 27 -215 3z"/>
<path d="M1340 2402 c-200 -30 -364 -179 -416 -375 -13 -51 -13 -242 1 -327
48 -292 143 -545 294 -775 130 -199 336 -335 607 -400 91 -23 304 -27 409 -9
140 24 299 91 400 167 65 49 177 170 233 250 48 69 180 316 212 397 51 127
188 392 230 444 49 60 124 103 202 115 47 8 52 7 97 -29 44 -35 111 -115 137
-165 6 -11 16 -29 22 -40 6 -11 41 -92 78 -180 209 -504 409 -779 679 -930
132 -74 300 -113 471 -110 387 8 658 148 852 440 84 126 156 309 192 484 25
126 30 191 32 406 2 206 -5 250 -62 370 -62 130 -160 210 -285 235 -47 9 -316
6 -333 -3 -4 -3 -29 -8 -57 -11 -27 -4 -77 -11 -111 -16 -87 -14 -180 -23
-359 -37 -216 -16 -1013 -7 -1205 14 -25 3 -243 6 -485 8 -372 2 -813 11
-1010 20 -78 4 -305 16 -355 20 -156 11 -234 17 -250 20 -10 2 -51 7 -91 10
-40 4 -80 8 -88 9 -9 1 -27 0 -41 -2z"/>
</g>
</svg>
