<svg id="Capa_1" enable-background="new 0 0 512 512" height="512" viewBox="0 0 512 512" width="512" xmlns="http://www.w3.org/2000/svg"><g><g><path d="m224.83 403.698c4.974-6.074 8.337-12.506 8.337-20.663 0-2.358-.34-4.864-.978-7.346-1.176-9.815-6.285-18.733-15.565-24.146-9.346-5.452-20.818-5.505-30.441-1.114-1.365-.12-2.747-.172-4.146-.142-2.191.047-4.327.275-6.407.66-3.196-1.025-6.498-1.612-9.83-1.776-11.749-7.413-26.361-10.874-39.789-6.159-2.937.118-5.945.628-9 1.597-.903.286-1.787.61-2.658.958-12.62-3.134-26.654.459-34.597 11.259-6.14 6.649-9.351 15.462-10.162 24.761-1.085 12.443 3.226 26.644 10.387 36.808 3.21 4.556 6.89 8.846 11.008 12.559 1.483 1.775 3.012 3.481 4.584 5.089 2.241 3.027 4.765 5.812 7.524 8.332 12.315 16.199 32.371 26.101 53.312 23.287 16.145-2.169 29.246-11.163 38.164-23.51 1.476-1.082 2.928-2.194 4.351-3.335 9.663-7.75 17.639-19.189 21.727-31.504 1.485-1.797 2.892-3.674 4.179-5.615z" fill="#ffbd6f"/><path d="m439.202 388.192c2.116-15.615-6.924-30.966-21.156-37.599-12.071-6.318-24.732-5.109-37.393-2.545-9.658-.71-18.891 1.078-28.033 4.982-8.506.509-17.022.374-25.522-.404-1.92-1.084-3.987-2.007-6.198-2.733-1.131-.372-2.262-.743-3.393-1.115-9.242-5.422-21.454-6.441-30.714-.471-4.338 2.797-7.966 6.425-10.763 10.763-3.659 5.676-5.649 16.67-3.024 23.117.493 1.21.99 2.407 1.494 3.591.477 1.34 1.056 2.652 1.735 3.931 3.073 6.755 6.536 13.111 11.084 19.239 5.781 7.789 11.923 15.252 18.298 22.555 11.03 12.637 22.525 24.856 34.422 36.679 9.212 9.154 25.091 11.713 36.355 4.691 2.765-1.724 5.161-3.706 7.214-5.885 13.778-1.875 26.965-7.673 36.124-18.155 5.263-6.024 8.884-12.709 10.69-19.725 8.876-11.805 11.962-26.961 8.78-40.916z" fill="#ffbd6f"/><path d="m371.216 180.876c-3.47-15.986-8.199-31.697-14.127-46.943-6.537-16.812-13.793-34.002-23.268-49.422-8.212-13.365-21.371-24.261-37.865-23.985-9.319.156-16.959 3.878-24.218 8.605-33.516 8.776-36.776 4.599-51.586-4.491-2.459-3.792-5.742-6.987-9.734-9.096-14.898-7.871-46.829-.615-55.915 13.493-34.321 53.294-51.215 107.844-67.799 169.019-5.345 19.716-6.52 35.769 12.791 36.916 36.337 2.158 94.514 7.066 130.851 9.224 18.169 1.079 36.337 2.158 54.506 3.237 17.995 1.069 36.543 3.772 54.41.244 25.161-4.969 39.727-28.15 39.345-52.738-.281-18.011-3.578-36.494-7.391-54.063z" fill="#ffda7f"/></g><g fill="#25356d"><path d="m492.496 238.727c-18.922 5.475-38.264 9.444-57.805 12.363-79.803 11.202-160.599 15.155-241.146 12.646-35.414-1.199-70.952-2.992-106.149-7.282 2.014-2.775 3.406-6.445 4.538-9.327 6.739-16.154 12.157-33.141 17.443-49.697 15.935-50.199 31.828-108.477 79.228-137.443 9.932.228 20.066 4.523 29.371 7.841h.001c17.73 13.062 41.68 16.465 62.696 10.076 18.594-4.7 39.14-27.511 57.462-11.38 29.394 29.462 41.484 71.513 61.954 107.118 1.6 2.886 4.754 4.774 8.271 4.582 21.009-.341-4.146-64.889-9.458-75.995-13.224-26.864-33.358-55.787-64.467-63.347-24.891-4.785-43.263 16.495-65.434 22.497-14.163 3.493-30.231.471-41.74-8.321-.027-.019-.053-.033-.08-.052-11.477-11.425-25.814-20.233-42.534-21.322-23.626 5.036-43.838 24.434-55.97 44.572-21.773 40.386-28.767 87.148-41.701 130.533-4.057 13.971-8.423 28.143-14.476 41.253-.972 2.084-1.034 4.355-.369 6.382-19.628-2.827-39.13-6.518-58.42-11.418-15.208-3.52-19.361 19.809-4.257 22.098 60.66 9.412 121.938 15.488 183.253 18.731 63.876 3.244 127.912 3.261 191.771-.881 39.145-2.609 78.091-5.257 116.491-14.467 19.555-5.642 10.845-35.227-8.473-29.76z"/><path d="m415.313 338.226c-16.524-1.458-31.376 3.336-46.78 4.261-34.471 3.391-69.135 1.95-103.64.036-1.473-.438-3.089-.697-4.87-.709-24.626-.431-49.462.583-74.083-.354-21.025-.646-42.281-1.403-63.26-3.085-7.2-.538-14.369-1.51-21.549-2.247-18.765.519-34.923 17.172-34.5 35.956.268 23.249 6.814 46.2 18.771 66.15l-.409-.684c20.936 42.146 84.419 51.228 116.431 16.655 19.009-20.14 25.111-48.277 39.635-70.488 1.466-1.636 2.696-3.388 3.698-4.742 4.738-2.764 9.283-5.889 15.17-5.491.207 0 .398-.023.601-.03 6.826 3.905 11.94 11.249 15.62 18.428 11.369 27.315 25.319 64.616 55.218 80.468 16.375 9.144 36.266 9.598 54.074 5.473 42.068-8.808 60.681-54.759 58.442-93.756 3.11-19.15-6.272-44.664-28.569-45.841zm-226.336 97.444c-16.434 23.845-53.105 26.965-75.435 9.731-20.631-17.541-29.348-47.049-29.464-73.318.207-8.067 7.211-15.181 15.192-15.075 38.444 12.173 78.345 16.203 118.341 15.649-10.629 19.721-17.239 49.257-28.634 63.013zm181.704 13.721c-8.678.333-16.805.088-24.435-4.08-29.234-15.56-37.109-57.019-58.636-80.477 27.788.093 55.698-1.308 83.187-4.848 26.072-1.981 61.261-19.491 55.667 23.071 1.324 32.682-20.311 67.434-55.783 66.334z"/></g></g></svg>